Coordinates
version=1
nRows=7
nColumns=63
inDegrees=yes

Units are S.I. units (second, meters, Newtons, ...)
If the header above contains a line with 'inDegrees', this indicates whether rotational values are in degrees (yes) or radians (no).

endheader
time	pelvis_tilt	pelvis_list	pelvis_rotation	pelvis_tx	pelvis_ty	pelvis_tz	hip_flexion_r	hip_adduction_r	hip_rotation_r	knee_angle_r	knee_angle_r_beta	ankle_angle_r	subtalar_angle_r	mtp_angle_r	hip_flexion_l	hip_adduction_l	hip_rotation_l	knee_angle_l	knee_angle_l_beta	ankle_angle_l	subtalar_angle_l	mtp_angle_l	L5_S1_Flex_Ext	L5_S1_Lat_Bending	L5_S1_axial_rotation	L4_L5_Flex_Ext	L4_L5_Lat_Bending	L4_L5_axial_rotation	L3_L4_Flex_Ext	L3_L4_Lat_Bending	L3_L4_axial_rotation	L2_L3_Flex_Ext	L2_L3_Lat_Bending	L2_L3_axial_rotation	L1_L2_Flex_Ext	L1_L2_Lat_Bending	L1_L2_axial_rotation	L1_T12_Flex_Ext	L1_T12_Lat_Bending	L1_T12_axial_rotation	Abs_r3	Abs_r2	Abs_r1	Abs_t1	Abs_t2	neck_flexion	neck_bending	neck_rotation	arm_flex_r	arm_add_r	arm_rot_r	elbow_flex_r	pro_sup_r	wrist_flex_r	wrist_dev_r	arm_flex_l	arm_add_l	arm_rot_l	elbow_flex_l	pro_sup_l	wrist_flex_l	wrist_dev_l
     13.73333333	      6.40099103	      3.13533355	    189.79884601	      0.60601072	      0.87872493	      0.37881742	     34.13261300	     -3.36820298	    -18.46053247	     14.66138739	      0.25588948	      4.32460847	     -2.97888146	      0.00000000	     -4.06736179	     -3.13032435	    -17.53071167	     16.50454691	      0.28805869	     30.75894363	     17.43941652	      0.00000000	      0.00280946	      0.21299000	     -2.47813955	      0.00521745	      0.28327670	     -2.63302328	      0.00461566	      0.51786388	     -2.63302328	      0.00321093	      0.51786388	     -2.16837211	      0.00260886	      0.43432920	     -2.01348839	      0.00160532	      0.32992151	     -1.85860466	      0.02006768	      2.40938544	    -13.78266875	      0.00000000	      0.00000000	     -0.00000000	      0.00000000	      0.00000000	    -12.45427259	    -15.94400758	     22.73825342	     26.25733077	     36.29341865	      0.00000000	      5.00000014	      6.11764861	    -16.79885527	     15.60026652	     39.25249147	     50.59784709	      0.00000000	      5.00000014
     13.76666667	      6.61260268	      3.28953599	    189.85535652	      0.56570850	      0.87517339	      0.37897137	     34.18258702	     -2.54592941	    -18.72164486	     13.98309038	      0.24405097	      4.07999944	     -2.74678156	      0.00000000	     -4.58728089	     -4.38110641	    -17.62558531	     20.61306839	      0.35976591	     30.52201073	     16.07746036	      0.00000000	      0.00209150	      0.25977122	     -2.47206888	      0.00388413	      0.34549572	     -2.62657319	      0.00343613	      0.63160774	     -2.62657319	      0.00239038	      0.63160774	     -2.16306027	      0.00194217	      0.52972547	     -2.00855597	      0.00119508	      0.40238562	     -1.85405166	      0.01493938	      2.93858398	    -13.74890551	      0.00000000	      0.00000000	     -0.00000000	      0.00000000	      0.00000000	    -12.99228226	    -15.70955336	     23.29427812	     24.99482319	     36.54575862	      0.00000000	      5.00000014	      6.05959918	    -16.80582751	     16.13494003	     39.51520250	     50.74867029	      0.00000000	      5.00000014
     13.80000000	      6.70683130	      3.61749225	    189.72288495	      0.52393968	      0.87417769	      0.37868348	     33.73585026	     -1.67121133	    -19.27293203	     14.87063508	      0.25954154	      4.37809200	     -2.76259664	      0.00000000	     -3.72564923	     -5.42963294	    -13.72474929	     26.94728688	      0.47031888	     27.88075258	      8.57568805	      0.00000000	      0.00182425	      0.33493667	     -2.40528387	      0.00338781	      0.44546577	     -2.55561411	      0.00299706	      0.81436502	     -2.55561411	      0.00208493	      0.81436502	     -2.10462338	      0.00169400	      0.68300285	     -1.95429314	      0.00104238	      0.51881690	     -1.80396290	      0.01303042	      3.78887058	    -13.37746727	      0.00000000	      0.00000000	     -0.00000000	      0.00000000	      0.00000000	    -13.09554822	    -15.69965934	     25.02890765	     23.95235942	     37.23681236	      0.00000000	      5.00000014	      5.74271220	    -16.59905196	     17.17313336	     38.79041660	     50.99353489	      0.00000000	      5.00000014
     13.83333333	      6.68762494	      3.80547832	    188.68577909	      0.48066939	      0.87557100	      0.37794164	     32.87067563	     -0.71040155	    -19.22995005	     16.93996354	      0.29565814	      5.15247910	     -2.38706448	      0.00000000	     -1.72674993	     -5.25058044	     -7.69526932	     34.85400276	      0.60831711	     21.28216733	     -4.69656959	      0.00000000	      0.00031438	      0.40759258	     -2.14007472	      0.00058384	      0.54209813	     -2.27382939	      0.00051650	      0.99102060	     -2.27382939	      0.00035931	      0.99102060	     -1.87256538	      0.00029194	      0.83116279	     -1.73881071	      0.00017964	      0.63136091	     -1.60505604	      0.00224562	      4.61076879	    -11.90245354	      0.00000000	      0.00000000	     -0.00000000	      0.00000000	      0.00000000	    -12.82702749	    -15.63077126	     26.03047128	     22.97909870	     37.66427899	      0.00000000	      5.00000014	      5.03314233	    -15.92905384	     17.72207508	     37.37355211	     51.07454205	      0.00000000	      5.00000014
     13.86666667	      6.50113767	      3.99443141	    187.58434874	      0.43622052	      0.87898010	      0.37733534	     31.22525367	      0.20529935	    -19.05148270	     19.11851562	      0.33368105	      6.43722202	     -1.70408719	      0.00000000	      1.21649588	     -5.27304300	     -3.98726159	     43.73661033	      0.76334785	     11.97709953	    -14.99722320	      0.00000000	     -0.00226802	      0.48239035	     -1.82532273	     -0.00421193	      0.64157916	     -1.93940540	     -0.00372612	      1.17288389	     -1.93940540	     -0.00259211	      1.17288389	     -1.59715739	     -0.00210608	      0.98369040	     -1.48307472	     -0.00129594	      0.74722265	     -1.36899205	     -0.01620021	      5.45689609	    -10.15189742	      0.00000000	      0.00000000	     -0.00000000	      0.00000000	      0.00000000	    -12.21379755	    -15.51284831	     26.09452501	     22.21218184	     37.78807172	      0.00000000	      5.00000014	      4.09701788	    -14.93952583	     18.02222540	     35.28340063	     51.06412811	      0.00000000	      5.00000014
     13.90000000	      6.20743619	      4.25891595	    186.10686197	      0.39110526	      0.88364055	      0.37635973	     28.95352413	      1.37714264	    -18.28563080	     20.99137950	      0.36636869	      7.99723840	     -1.02343349	      0.00000000	      4.71849940	     -6.26080466	     -3.20240515	     52.38724002	      0.91432982	      4.23885456	    -18.38946001	      0.00000000	     -0.00335645	      0.56010813	     -1.40269427	     -0.00623326	      0.74494381	     -1.49036266	     -0.00551431	      1.36184691	     -1.49036266	     -0.00383608	      1.36184691	     -1.22735749	     -0.00311680	      1.14217250	     -1.13968910	     -0.00191787	      0.86760749	     -1.05202070	     -0.02397477	      6.33605519	     -7.80136473	      0.00000000	      0.00000000	     -0.00000000	      0.00000000	      0.00000000	    -11.17733372	    -15.39107110	     25.70191549	     21.54871735	     37.72209164	      0.00000000	      5.00000014	      2.98843145	    -13.74743344	     18.07416105	     32.89989055	     51.03347500	      0.00000000	      5.00000014
     13.93333333	      5.84244554	      4.19684929	    185.04558233	      0.34644801	      0.88891779	      0.37611846	     25.89779545	      2.09239266	    -17.32920048	     21.91014693	      0.38240420	     10.07842641	     -0.16730830	      0.00000000	      8.79453450	     -6.77832943	     -2.03216284	     60.02051367	      1.04755558	     -0.68242897	    -19.14570872	      0.00000000	     -0.00571545	      0.58772689	     -1.02699744	     -0.01061417	      0.78167676	     -1.09118478	     -0.00938992	      1.42899915	     -1.09118478	     -0.00653219	      1.42899915	     -0.89862276	     -0.00530737	      1.19849267	     -0.83443542	     -0.00326581	      0.91038895	     -0.77024808	     -0.04082490	      6.64848408	     -5.71185166	      0.00000000	      0.00000000	     -0.00000000	      0.00000000	      0.00000000	     -9.72748066	    -15.19738854	     25.10840677	     21.33108635	     37.60274834	      0.00000000	      5.00000014	      1.76372988	    -12.71802789	     17.97727336	     30.76302447	     50.97556249	      0.00000000	      5.00000014
